<?xml version="1.0" encoding="utf-8"?>
<!-- Generator: Adobe Illustrator 27.6.0, SVG Export Plug-In . SVG Version: 6.00 Build 0)  -->
<svg version="1.1" id="Layer_1" xmlns="http://www.w3.org/2000/svg" xmlns:xlink="http://www.w3.org/1999/xlink" x="0px" y="0px"
	 viewBox="0 0 340.92 193" style="enable-background:new 0 0 340.92 193;" xml:space="preserve">
<style type="text/css">
	.st0{fill:#ED493D;}
	.st1{fill:#FEFEFE;}
</style>
<g>
	<path class="st0" d="M178.07,13.96c2.48,1.01,4.95,2.03,7.43,3.03c3.05,1.23,6.17,2.22,9.38,2.98c1.88,0.45,3.76,0.89,5.66,1.09
		c2.89,0.31,5.81,0.38,8.73,0.09c2.17-0.22,4.3-0.6,6.41-1.13c4.63-1.17,8.93-3.11,12.99-5.59c4.8-2.93,9.12-6.46,12.99-10.54
		c1.14-1.21,2.22-2.48,3.34-3.73c0.29,0.28,0.15,0.61,0.15,0.89c0.01,36.47,0,72.95,0.03,109.42c0,0.68-0.29,1.14-0.64,1.55
		c-2.53,3.03-5.35,5.78-8.29,8.4c-0.71,0.63-1.57,1.15-2.32,1.77c-0.13-0.04-0.17,0.05-0.21,0.14c-0.18,0.14-0.36,0.28-0.54,0.42
		c-0.13-0.04-0.17,0.05-0.21,0.14c-0.37,0.27-0.74,0.54-1.11,0.8c-0.13-0.05-0.17,0.04-0.21,0.13c-0.76,0.34-1.23,1.11-2.04,1.37
		c-0.13-0.05-0.17,0.04-0.21,0.13c-0.24,0.15-0.49,0.29-0.73,0.44c-0.13-0.06-0.17,0.03-0.2,0.12c-0.24,0.14-0.49,0.29-0.73,0.43
		c-0.13-0.05-0.17,0.04-0.21,0.13c-0.52,0.22-0.91,0.68-1.48,0.81c-0.13-0.05-0.17,0.04-0.21,0.13c-2.91,1.71-6.07,2.92-9.28,3.83
		c-2.18,0.61-4.46,1.05-6.76,1.27c-2.59,0.25-5.17,0.22-7.74,0.1c-2.78-0.13-5.51-0.8-8.21-1.5c-1.71-0.44-3.4-0.94-5.1-1.44
		c-2.4-0.71-4.55-2.01-6.93-2.72c-1.27-0.38-2.42-1.06-3.64-1.49c-1.67-0.59-3.26-1.4-4.85-2.12c-1.51-0.68-3-1.51-4.52-2.23
		c-3.29-1.54-6.59-3.06-9.99-4.34c-4.69-1.76-9.44-3.38-14.36-4.32c-4.13-0.79-8.31-1.27-12.54-1c-5.45,0.34-10.73,1.39-15.77,3.54
		c-8.04,3.44-14.57,8.73-19.62,15.87c-0.1,0.14-0.14,0.35-0.4,0.36c-0.17-0.28-0.08-0.6-0.08-0.9
		c-0.01-35.83,0.02-71.65-0.06-107.48c-0.01-2.37,0.76-4.16,2.2-5.84c2.17-2.52,4.49-4.88,7.09-6.99c2.19-1.77,4.49-3.35,6.96-4.64
		c2.62-1.37,5.37-2.46,8.19-3.35c2.13-0.68,4.31-1.18,6.51-1.46c3.9-0.48,7.79-0.77,11.76-0.29c4.21,0.5,8.34,1.28,12.39,2.5
		c4.89,1.47,9.63,3.34,14.28,5.44c4.17,1.88,8.34,3.74,12.52,5.61C177.9,13.91,177.94,13.98,178.07,13.96z"/>
	<path class="st1" d="M335.89,170.17c0.13,0.04,0.25,0.07,0.38,0.11c0.12,0.03,0.25,0.06,0.37,0.08c0.87,0.31,1.75,0.61,2.62,0.94
		c1.28,0.49,1.63,1.03,1.63,2.4c0,6-0.01,11.99,0.02,17.99c0,0.71-0.19,0.89-0.88,0.88c-2.62-0.04-5.25-0.05-7.87,0
		c-0.79,0.02-0.9-0.27-0.9-0.96c0.02-6.37,0-12.74,0.03-19.11c0-0.8-0.22-0.97-0.98-0.96c-2.56,0.05-5.12,0.05-7.68,0
		c-0.74-0.01-0.93,0.18-0.93,0.92c0.03,6.37,0,12.74,0.03,19.11c0,0.76-0.15,1.01-0.96,0.99c-2.65-0.05-5.31-0.04-7.96-0.01
		c-0.62,0.01-0.77-0.17-0.77-0.78c0.02-6.43,0-12.87,0.03-19.3c0-0.7-0.13-0.96-0.9-0.94c-2.53,0.05-5.06,0.05-7.59,0
		c-0.8-0.02-1.05,0.16-1.04,1.01c0.04,6.34,0.01,12.68,0.04,19.02c0,0.75-0.13,1.02-0.95,1c-2.62-0.06-5.25-0.04-7.87-0.01
		c-0.59,0.01-0.8-0.12-0.79-0.77c0.03-6.06,0.03-12.12,0-18.17c-0.01-1.14,0.57-1.74,1.52-2.16c1.14-0.51,2.32-0.88,3.52-1.24
		c0.12-0.04,0.25-0.07,0.37-0.11c0.2,0.03,0.4,0.02,0.56-0.13c0.12-0.02,0.25-0.04,0.38-0.06c6.14-0.77,12.3-0.24,18.45-0.37
		c2.65-0.06,5.31,0.02,7.96-0.02c2.95-0.04,5.89,0.07,8.82,0.44c0.08,0.21,0.24,0.16,0.39,0.1c0.19,0.01,0.38,0.02,0.57,0.02
		C335.65,170.13,335.77,170.15,335.89,170.17z"/>
	<path class="st1" d="M58.71,192.41c0-6.43,0.02-12.86-0.01-19.3c0-0.7,0.14-1.28,0.63-1.74c1.87-1.72,3.93-2.96,6.62-2.74
		c2.04,0.17,3.95,0.69,5.8,1.57c1.77,0.85,3.55,1.67,5.47,2.16c2.35,0.6,4.38-0.16,6.31-1.38c0.92-0.58,1.71-1.34,2.44-2.13
		c0.32,0.15,0.2,0.39,0.2,0.58c0.01,6.34,0,12.68,0.02,19.02c0,0.48-0.15,0.83-0.46,1.16c-0.95,1-1.99,1.89-3.25,2.5
		c-0.14-0.06-0.17,0.03-0.19,0.14c-0.06,0.03-0.12,0.06-0.18,0.09c-0.28,0.03-0.56,0.04-0.76,0.28c-2.04,0.63-4.04,0.47-6-0.34
		c-2.02-0.84-4-1.79-6.06-2.52c-4.18-1.49-7.6-0.53-10.38,2.76C58.84,192.48,58.78,192.44,58.71,192.41z"/>
	<path class="st1" d="M173.09,180.99c0-3.56,0.01-7.12-0.01-10.68c0-0.6,0.14-0.8,0.77-0.79c2.69,0.04,5.37,0.04,8.06,0
		c0.63-0.01,0.78,0.18,0.78,0.78c-0.03,2.97,0.01,5.93-0.03,8.9c-0.01,0.72,0.2,0.88,0.89,0.87c2.62-0.04,5.25-0.04,7.87,0
		c0.68,0.01,0.82-0.21,0.82-0.84c-0.03-2.94,0-5.87-0.03-8.81c-0.01-0.66,0.1-0.92,0.85-0.9c2.65,0.05,5.31,0.04,7.96,0.01
		c0.63-0.01,0.85,0.12,0.85,0.8c-0.03,7.15-0.02,14.3-0.01,21.46c0,0.53-0.06,0.78-0.69,0.77c-2.75-0.03-5.5-0.03-8.24,0
		c-0.6,0.01-0.72-0.2-0.72-0.76c0.03-2.97,0-5.93,0.03-8.9c0.01-0.61-0.08-0.87-0.79-0.86c-2.69,0.04-5.37,0.03-8.06,0
		c-0.58-0.01-0.73,0.15-0.72,0.73c0.03,2.97-0.01,5.93,0.03,8.9c0.01,0.68-0.14,0.91-0.87,0.89c-2.65-0.05-5.31-0.04-7.96,0
		c-0.63,0.01-0.78-0.18-0.78-0.79C173.1,188.18,173.09,184.58,173.09,180.99z"/>
	<path class="st1" d="M24.56,170.39c1.03,0.42,2.12,0.66,3.08,1.26c0.74,0.47,1.11,1.07,1.11,2c-0.03,6-0.03,11.99,0,17.99
		c0,0.74-0.19,0.93-0.92,0.92c-2.59-0.05-5.18-0.05-7.77,0c-0.79,0.02-0.92-0.26-0.91-0.96c0.04-1.84-0.02-3.69,0.03-5.53
		c0.02-0.64-0.19-0.78-0.79-0.77c-2.65,0.03-5.31,0.03-7.96,0c-0.63-0.01-0.86,0.13-0.85,0.82c0.05,1.87,0,3.75,0.03,5.62
		c0.01,0.56-0.08,0.82-0.74,0.81c-2.72-0.04-5.43-0.03-8.15,0c-0.6,0.01-0.71-0.18-0.71-0.74c0.02-6.15,0.02-12.3,0.01-18.45
		c0-0.87,0.32-1.39,1.17-1.77c1.03-0.46,2.07-0.84,3.14-1.2c0.12-0.03,0.25-0.07,0.37-0.1c0.21,0.03,0.4,0.02,0.57-0.13
		c0.12-0.02,0.25-0.03,0.37-0.05c0.2,0.03,0.4,0.02,0.56-0.12c0.19-0.02,0.37-0.05,0.56-0.07c2.74-0.29,5.49-0.4,8.25-0.4
		c2.45,0,4.87,0.17,7.3,0.44c0.14,0.28,0.37,0.13,0.57,0.13c0.18,0.02,0.37,0.04,0.55,0.06c0.09,0.22,0.24,0.12,0.39,0.08
		c0.13,0.02,0.25,0.03,0.38,0.05C24.31,170.32,24.44,170.36,24.56,170.39z M19.16,177.53c0-1.75-0.02-3.49,0.01-5.24
		c0.01-0.55-0.1-0.76-0.71-0.75c-2.71,0.03-5.42,0.03-8.14,0c-0.56-0.01-0.75,0.13-0.75,0.72c0.03,3.46,0.02,6.92,0,10.38
		c0,0.53,0.13,0.7,0.67,0.7c2.74-0.02,5.49-0.03,8.23,0c0.64,0.01,0.69-0.24,0.68-0.77C19.14,180.9,19.16,179.22,19.16,177.53z"/>
	<path class="st1" d="M240.11,169.93c7.14-0.81,14.3-0.2,21.45-0.4c0.58-0.02,0.82,0.09,0.8,0.75c-0.05,1.9-0.03,3.81-0.01,5.71
		c0.01,0.53-0.07,0.77-0.7,0.77c-2.75-0.04-5.5-0.03-8.24,0c-0.54,0.01-0.7-0.16-0.68-0.69c0.03-1.28-0.01-2.56,0.02-3.84
		c0.02-0.54-0.16-0.69-0.69-0.68c-2.75,0.02-5.5,0.03-8.24,0c-0.57-0.01-0.66,0.22-0.66,0.72c0.02,2.34,0.03,4.68-0.01,7.03
		c-0.01,0.62,0.15,0.79,0.78,0.79c2.65-0.04,5.31,0.02,7.96-0.04c0.83-0.02,0.89,0.32,0.88,0.98c-0.01,0.65,0.02,1.09-0.9,1.07
		c-2.62-0.07-5.25-0.01-7.87-0.04c-0.61-0.01-0.87,0.1-0.86,0.8c0.05,2.31,0.04,4.62,0,6.93c-0.01,0.6,0.14,0.8,0.78,0.79
		c2.69-0.04,5.37-0.04,8.06,0c0.65,0.01,0.78-0.21,0.76-0.8c-0.04-1.25,0.01-2.5-0.02-3.75c-0.01-0.5,0.08-0.72,0.66-0.72
		c2.78,0.03,5.56,0.02,8.34,0c0.5,0,0.64,0.16,0.63,0.65c-0.03,1.97-0.04,3.94,0,5.9c0.01,0.63-0.25,0.7-0.78,0.7
		c-3.5-0.02-7-0.01-10.49-0.01c-3.03,0-6.07,0.13-9.08-0.14c-2.56-0.23-5.15-0.5-7.38-2.02c-0.7-0.48-1.07-1.02-1.06-1.92
		c0.04-4.93,0.06-9.87-0.01-14.8c-0.02-1.1,0.71-1.95,1.68-2.38c1.44-0.62,2.97-0.95,4.49-1.29
		C239.86,169.98,239.98,169.96,240.11,169.93z"/>
	<path class="st1" d="M128.8,169.54c4.5,0,8.99,0.03,13.49-0.03c0.88-0.01,0.84,0.39,0.85,1c0.01,0.65,0.04,1.09-0.89,1.07
		c-2.62-0.07-5.24,0-7.87-0.04c-0.71-0.01-0.88,0.19-0.87,0.89c0.03,6.37,0,12.74,0.04,19.11c0,0.82-0.18,1.05-1.02,1.03
		c-2.59-0.06-5.18-0.04-7.77-0.01c-0.66,0.01-0.83-0.18-0.83-0.83c0.03-6.4-0.01-12.8,0.04-19.2c0.01-0.86-0.25-1.01-1.03-0.99
		c-2.53,0.05-5.06-0.03-7.59,0.04c-0.9,0.03-0.99-0.31-0.99-1.06c-0.01-0.75,0.15-1,0.96-1C119.81,169.56,124.3,169.54,128.8,169.54
		z"/>
</g>
</svg>
