<?xml version="1.0" encoding="utf-8"?>
<!-- Generator: Adobe Illustrator 27.6.0, SVG Export Plug-In . SVG Version: 6.00 Build 0)  -->
<svg version="1.1" id="Layer_1" xmlns="http://www.w3.org/2000/svg" xmlns:xlink="http://www.w3.org/1999/xlink" x="0px" y="0px"
	 viewBox="0 0 500 213.46" style="enable-background:new 0 0 500 213.46;" xml:space="preserve">
<style type="text/css">
	.st0{fill:url(#path281_00000146501524226692474650000008893419907410015379_);}
</style>
<linearGradient id="path281_00000097497777716604290590000005730928046759388303_" gradientUnits="userSpaceOnUse" x1="-420.6707" y1="1507.4135" x2="-369.1708" y2="1507.4135" gradientTransform="matrix(9.7087 0 0 -9.7087 4084.1824 14741.8154)">
	<stop  offset="0" style="stop-color:#ED1C24"/>
	<stop  offset="0.06" style="stop-color:#F03F23"/>
	<stop  offset="0.13" style="stop-color:#F26321"/>
	<stop  offset="0.17" style="stop-color:#F37021"/>
	<stop  offset="0.24" style="stop-color:#F78A1E"/>
	<stop  offset="0.32" style="stop-color:#FBA51B"/>
	<stop  offset="0.37" style="stop-color:#FCAF1A"/>
	<stop  offset="0.41" style="stop-color:#EEB21F"/>
	<stop  offset="0.5" style="stop-color:#C7BA2C"/>
	<stop  offset="0.61" style="stop-color:#8DC63F"/>
	<stop  offset="0.64" style="stop-color:#7DC24D"/>
	<stop  offset="0.76" style="stop-color:#3FB184"/>
	<stop  offset="0.82" style="stop-color:#26AB9A"/>
	<stop  offset="0.88" style="stop-color:#1B9A9F"/>
	<stop  offset="1" style="stop-color:#006EAB"/>
</linearGradient>
<path id="path281" style="fill:url(#path281_00000097497777716604290590000005730928046759388303_);" d="M0.24,142.82v56.97
	c0,2.83,1.14,5.54,3.17,7.54c2.03,2,4.79,3.12,7.66,3.12c2.87,0,5.63-1.12,7.66-3.12c2.03-2,3.17-4.71,3.17-7.54v-56.97L0.24,142.82
	z M111.58,142.82v56.97c0,1.4,0.28,2.79,0.82,4.08c0.54,1.29,1.34,2.47,2.35,3.46c1.01,0.99,2.2,1.78,3.52,2.31
	c1.31,0.54,2.72,0.81,4.15,0.81c1.42,0,2.83-0.28,4.15-0.81c1.31-0.54,2.51-1.32,3.51-2.31c1.01-0.99,1.8-2.16,2.35-3.46
	c0.54-1.29,0.82-2.68,0.82-4.08v-56.97L111.58,142.82z M288.4,142.82v5.17c0,27.21-19.73,48.53-44.95,48.53
	c-29.92,0-44.39-15.91-44.39-47.74v-5.97h-21.67v6.92c0,42.01,20.13,63.65,59.75,63.65c10.52,0.54,20.96-1.98,30.03-7.27
	c9.06-5.28,16.34-13.08,20.91-22.41V183v17.66c0,2.83,1.14,5.54,3.17,7.54c2.03,2,4.79,3.12,7.66,3.12c2.87,0,5.63-1.12,7.66-3.12
	c2.03-2,3.17-4.71,3.17-7.54v-57.84L288.4,142.82z M177.39,69.46v57.44h21.67V69.46c0-2.83-1.14-5.54-3.17-7.54
	c-2.03-2-4.79-3.12-7.66-3.12c-2.87,0-5.63,1.12-7.66,3.12C178.53,63.92,177.39,66.63,177.39,69.46z M288.4,69.46v57.44h21.67V69.46
	c0-2.83-1.14-5.54-3.17-7.54c-2.03-2-4.79-3.12-7.66-3.12c-2.87,0-5.63,1.12-7.66,3.12C289.54,63.92,288.4,66.63,288.4,69.46
	L288.4,69.46z M376.37,126.19c2.51-32.46,24.26-53.39,55.14-53.39c23.69,0,48.51,14.08,48.51,53.47v0.64H376.29L376.37,126.19z
	 M354.21,126.9h-13.83c-2.14,0-4.2,0.84-5.72,2.33c-1.52,1.49-2.37,3.52-2.37,5.63c0,2.11,0.85,4.13,2.37,5.63
	c1.52,1.49,3.57,2.33,5.72,2.33h13.83c3.15,42.88,34.36,70.25,81.5,70.25c16.68,0.58,33.27-2.61,48.51-9.31
	c2.01-0.64,3.72-1.95,4.83-3.72c1.11-1.76,1.55-3.86,1.24-5.91c-0.1-1.01-0.43-1.98-0.96-2.85c-0.53-0.87-1.25-1.61-2.12-2.16
	c-1.38-0.63-2.89-0.95-4.41-0.95c-1.52,0-3.03,0.32-4.41,0.95c-2.67,0.8-5.01,1.67-7.36,2.47c-10.6,4.08-21.94,5.97-33.31,5.57
	c-36.47,0-60.56-20.93-61.45-53.47v-0.88h113.19c1.35,0.16,2.72,0.01,4.02-0.38c1.3-0.41,2.48-1.1,3.48-2
	c1-0.91,1.79-2.02,2.31-3.26c0.52-1.24,0.76-2.57,0.7-3.91v-1.19c0-69.78-53.04-75.27-69.29-75.27
	c-19.55-0.54-38.53,6.51-52.84,19.62C363.55,89.55,355.05,107.68,354.21,126.9L354.21,126.9z M0.24,10.66V126.9h21.67
	c0-25.62,15.04-53.23,48.03-53.23c26.84,0,41.64,17.03,41.64,47.74v5.49h21.67v-5.01c0-42.01-20.29-65.16-57-65.16
	c-10.54-0.67-21.04,1.7-30.23,6.82C36.82,68.66,29.35,76.3,24.5,85.53l-2.83,5.73v-80.6c0-2.83-1.14-5.54-3.17-7.54
	C16.46,1.12,13.71,0,10.83,0C7.96,0,5.21,1.12,3.17,3.12C1.14,5.12,0,7.83,0,10.66"/>
</svg>
