<?xml version="1.0" encoding="utf-8"?>
<svg xmlns="http://www.w3.org/2000/svg">
  <defs>
  <!-- NOTES -->
  <!-- viewbox = x y width height -->
    <symbol id="home" viewBox="0 0 118.32 95.16">
        <path d="M62.86,95.16c-13.17,0-36.24,0-49.41,0c-0.17,0-0.34,0-0.51,0c-0.75-0.04-1.32-0.59-1.38-1.33
          c-0.02-0.25-0.01-0.51-0.01-0.77c0-14.43,0-28.87,0-43.3c0-0.72,0-0.72-0.71-0.72c-3.02,0-6.05-0.02-9.07,0.01
          C0.87,49.05,0.29,48.7,0,47.87c0-0.2,0-0.41,0-0.61c0.21-0.74,0.84-1.1,1.38-1.53C18.93,31.68,36.48,17.63,54.04,3.6
          c1.52-1.21,2.99-2.5,4.6-3.6c0.34,0,0.68,0,1.03,0c0.34,0.23,0.68,0.45,1.01,0.7c6.52,4.89,13.04,9.77,19.56,14.66
          c0.13,0.1,0.26,0.3,0.43,0.22c0.16-0.09,0.07-0.31,0.08-0.48c0.01-1.32,0.01-2.63,0-3.95c0-0.43,0.1-0.81,0.4-1.13
          c0.4-0.42,0.92-0.5,1.46-0.51c1.83,0,3.66,0,5.48,0c1.78,0,3.55,0,5.33,0c0.68,0,1.3,0.15,1.66,0.81c0.2,0.36,0.21,0.75,0.21,1.15
          c0,5.18,0,10.35-0.01,15.53c0,0.45,0.14,0.76,0.49,1.05c1.47,1.2,2.92,2.42,4.38,3.63c5.8,4.83,11.6,9.67,17.4,14.5
          c0.74,0.61,0.94,1.19,0.69,1.87c-0.25,0.68-0.77,0.97-1.73,0.97c-2.7,0-5.4,0-8.1,0c-0.39,0-0.79,0.01-1.18,0
          c-0.3-0.01-0.45,0.13-0.44,0.43c0,0.19,0,0.38,0,0.56c0,14.43,0,28.87,0,43.3c0,1.33-0.5,1.83-1.81,1.83L62.86,95.16z"/>
    </symbol>

    <symbol id="plex" viewBox="0 0 199.41 91.91">
      <path d="M32.74,16.44c-7.95,0-13.07,2.29-17.38,7.68
        v-5.93H0v73.03c0,0,0.27,0.13,1.08,0.27c1.08,0.27,6.74,1.48,10.91-2.02c3.64-3.1,4.45-6.74,4.45-10.78V68.18
        c4.45,4.72,9.43,6.74,16.44,6.74c15.09,0,26.68-12.26,26.68-28.56C59.55,28.7,48.37,16.44,32.74,16.44L32.74,16.44z M29.78,61.03
        c-8.49,0-15.22-7.01-15.22-15.49c0-8.35,7.95-15.09,15.22-15.09c8.62,0,15.22,6.6,15.22,15.22S38.26,61.03,29.78,61.03z"/>
      <path d="M81.38,44.6c0,6.33,0.67,14.01,6.87,22.37
        c0.13,0.13,0.4,0.54,0.4,0.54c-2.56,4.31-5.66,7.28-9.84,7.28c-3.23,0-6.47-1.75-9.16-4.72c-2.83-3.23-4.18-7.41-4.18-11.86V0
        h15.76L81.38,44.6z"/>
      <polygon points="158.85,45.67 140.26,18.19 
        159.39,18.19 177.85,45.67 159.39,73.03 140.26,73.03 	"/>
      <polygon points="182.83,42.58 199.41,18.19 
        180.27,18.19 173.4,28.29 	"/>
      <path d="M173.4,63.06l3.23,4.45
        c3.1,4.85,7.14,7.28,11.86,7.28c4.99-0.13,8.49-4.45,9.84-6.06c0,0-2.43-2.16-5.52-5.79c-4.18-4.85-9.7-13.74-9.84-14.15
        L173.4,63.06z"/>
      <path d="M126.11,57.26
        c-3.23,2.96-5.39,4.58-9.84,4.58c-7.95,0-12.53-5.66-13.2-11.86h42.17c0.27-0.81,0.4-1.89,0.4-3.64
        c0-17.11-12.53-29.91-28.97-29.91c-15.63,0-28.43,13.07-28.43,29.37c0,16.17,12.8,28.97,28.83,28.97
        c11.18,0,20.88-6.33,26.14-17.52H126.11z M116.81,29.37c7.01,0,12.26,4.58,13.47,10.64h-26.68
        C104.96,33.68,109.94,29.37,116.81,29.37L116.81,29.37z"/>
    </symbol>

    <symbol id="madvr" viewBox="0 0 90.64 105.36">
      <path d="M87.09,49.84c1.75,1.02,3.08,2.97,1.95,4.26C88.35,54.9,68,68.25,67.74,68.41c-1.05,0.69-1.63,0.67-2.67,0.1
        c-23.66-8.64-31.14-22.75-28.64-47.48c0.05-0.68,0.34-0.68,0.84-0.39L87.09,49.84z"/>
      <path d="M5.9,104.12c-0.73,0.3-1.76,0.66-2.9,0.04s-1.84-1.75-1.83-3.2c0.02-7.91,0.06-15.8,0.07-23.71
        c0.01-0.52,0.09-0.98,0.55-1.29c4.76-3.19,9.24-6.8,14.47-9.24c13.34-7.13,28.95-2,40.25,6.68c1.27,0.93,1.27,0.99-0.07,1.77
        L5.9,104.12z"/>
      <path d="M1.01,35.56C1.01,25.67,1.03,15.79,1,5.9C0.99,3.93,1.55,2.92,3.11,1.93c1.26-0.79,3.21,0.18,5.16,1.16
        c0,0,17.55,10.72,17.77,10.87c1.04,0.69,1.55,1.35,1.73,2.69c0.65,6.74,1.73,13.5,0.67,20.25c-1.4,14.66-13.83,24.17-26.52,29.47
        C1.2,66.7,1,66.54,1,65.65C1.01,55.62,0.99,45.57,1.01,35.56z"/>
    </symbol>

    <symbol id="anthem" viewBox="0 0 97.76 86.92">
      <path d="M84.06,82.98c-17.63,10.67-35.02-6.21-52.36-9.63C20.01,70.7,7.38,75.61,0.6,85.43 
        c-0.15-23.19,0.01-46.5-0.09-69.73c0-1.53,0.49-2.68,1.42-3.76C16.31-5.28,36.04,1.25,53.21,9.89c0,0.07,0.03,0.11,0.11,0.1
        c16.43,8.3,31.28,5.36,43.06-8.88c0.29,23.57,0,47.34,0.12,70.98C96.49,72.09,96.26,75.59,84.06,82.98z"/>
    </symbol>

    <symbol id="jvc" viewBox="0 0 176.65 70">
      <path d="M79.08,68.46h18.59l21.46-67.09h-16.85l-13.9,43.66L74.47,1.38H57.64L79.08,68.46z"/>
      <path d="M173.61,53.76V42.44h-15.9v11.32h-19.69V16.11h19.69v11.3h15.9V13.19h-0.01c0.59-7.77-4.2-12.88-12.08-12.29
        c-2.58,0.03-29.47-0.21-31.24,0.26c-5.93,0.75-8.58,6.56-8.15,12.03c0,0,0,43.49,0,43.49c-0.42,5.46,2.22,11.26,8.15,12.01
        c1.66,0.43,28.78,0.24,31.24,0.26c7.84,0.56,12.67-4.48,12.08-12.28l0.01-0.01V53.76z"/>
      <path d="M1.71,53.76V40.98h15.88v12.78H37.3V1.38h15.89c-0.15,2.14,0.36,59.06-0.31,59.59
        c-0.75,5.72-6.48,8.38-11.78,7.98c0,0-27.31,0-27.31,0C5.98,69.53,1.1,64.45,1.72,56.68l-0.01-0.01V53.76z"/>
    </symbol>

    <symbol id="lights" viewBox="0 0 74.59 115.42">

        <path d="M36.88,97.01c-4.36,0-8.72,0.02-13.08-0.01c-2.01-0.01-2.97-0.81-2.98-2.36c-0.01-1.52,1-2.4,2.98-2.41
          c8.72-0.03,17.43-0.03,26.15,0c2.15,0.01,3.1,0.84,3.04,2.5c-0.05,1.57-0.95,2.27-3.04,2.28C45.6,97.03,41.22,97.04,36.88,97.01z"
          />
        <path d="M36.86,104.38c-4.42,0-8.85-0.02-13.27,0.01c-1.54,0.01-2.64-0.44-2.76-2.15c-0.11-1.49,0.9-2.45,2.7-2.46
          c8.91-0.02,17.82-0.03,26.73,0.01c1.98,0.01,2.8,0.81,2.74,2.37c-0.06,1.57-0.85,2.21-2.86,2.22
          C45.71,104.39,41.29,104.38,36.86,104.38z"/>
        <path d="M37.16,113.42c-4.4-0.05-8.2-1.29-11.63-3.68c-0.69-0.48-1.56-1.04-1.25-2c0.31-0.98,1.34-0.61,2.07-0.62
          c7.09-0.03,14.19-0.02,21.28-0.01c0.69,0,1.62-0.27,1.93,0.59c0.33,0.89-0.44,1.45-1.07,1.92
          C45.08,112.19,41.17,113.31,37.16,113.42z"/>
        <path d="M57.3,8.76C33-9.07-3.81,12.52,1.52,42.69c2.32,17.81,18.94,22.16,18.6,43.22c-0.03,2.41,1.61,3.78,4.17,3.81
          c8.38,0.04,16.72,0,25.1-0.01c3-0.03,4.15-1.18,4.41-4.09c0.22-2.41,0.45-4.83,0.88-7.21c1.3-7.28,5.21-13.2,9.85-18.75
          C77.94,43.63,74.73,20.21,57.3,8.76z M36.62,16.7c-10.93,0.11-20.73,8.79-21.1,19.91c-0.06,0.92-0.08,1.82-0.83,2.5
          c-1.4,1.37-3.9,0.24-3.7-1.73c-0.06-13.88,11.95-24.8,25.53-25.05C39.94,12.36,39.86,16.78,36.62,16.7z"/>
    </symbol>



    <symbol id="bulb" viewBox="0 0 154 165.55">
        <path d="M77.04,144.63c-5.03,0-10.05,0.02-15.08-0.01c-2.32-0.01-3.42-0.93-3.44-2.72c-0.01-1.75,1.15-2.77,3.44-2.77
          c10.05-0.03,20.1-0.03,30.15,0c2.47,0.01,3.57,0.97,3.51,2.88c-0.06,1.82-1.09,2.62-3.51,2.63
          C87.1,144.65,82.07,144.64,77.04,144.63C77.04,144.63,77.04,144.63,77.04,144.63z"/>
        <path d="M77.03,153.13c-5.1,0-10.2-0.03-15.3,0.01c-1.78,0.01-3.04-0.51-3.19-2.48c-0.12-1.71,1.04-2.83,3.11-2.84
          c10.27-0.03,20.55-0.03,30.82,0.01c2.29,0.01,3.22,0.93,3.16,2.73c-0.07,1.81-0.99,2.55-3.29,2.56
          C87.23,153.14,82.13,153.13,77.03,153.13z"/>
        <path d="M77.37,163.55c-5.08-0.05-9.46-1.48-13.41-4.24c-0.8-0.56-1.8-1.2-1.44-2.31c0.36-1.13,1.55-0.71,2.39-0.71
          c8.18-0.03,16.36-0.03,24.53-0.01c0.79,0,1.86-0.31,2.22,0.68c0.38,1.03-0.51,1.67-1.23,2.21C86.5,162.13,82,163.41,77.37,163.55z
          "/>
        <path d="M100.59,42.87c-15.05-9.88-30.87-10.14-46.01-0.53c-14.31,9.08-20.48,22.68-18.3,39.65
          c0.99,7.68,4.47,14.31,9.48,20.21c7.24,8.53,12.1,18.07,11.97,29.63c-0.03,2.78,1.86,4.36,4.81,4.39
          c4.82,0.05,9.65,0.01,14.47,0.01c0-0.01,0-0.01,0-0.02c4.82,0,9.65,0.03,14.47-0.01c3.46-0.03,4.78-1.36,5.08-4.71
          c0.25-2.78,0.52-5.57,1.01-8.31c1.5-8.39,6.01-15.22,11.36-21.62C124.38,83.08,120.69,56.07,100.59,42.87z M76.75,52.02
          c-4.57,0.11-8.83,1.28-12.71,3.69c-7.14,4.44-11.07,10.84-11.62,19.26c-0.07,1.06-0.09,2.1-0.96,2.88
          c-0.81,0.73-1.74,0.87-2.73,0.5c-1.13-0.42-1.53-1.36-1.54-2.49c-0.04-4.94,1.25-9.54,3.73-13.78C56.37,52.75,64.7,48,75.37,47.1
          c0.42-0.04,0.83-0.12,1.25-0.12c1.73,0.04,3.07,1.16,2.96,2.59C79.46,51.27,78.34,51.98,76.75,52.02z"/>
    </symbol>
    <symbol id="bulb-high" viewBox="0 0 154 165.55">
        <use href="#bulb"/>
        <line x1="77" y1="22" x2="77" y2="2"/>
        <line x1="152" y1="78" x2="132" y2="78"/>
        <line x1="22" y1="78" x2="2" y2="78"/>
        <line x1="131.23" y1="24.73" x2="116.95" y2="38.73"/>
        <line x1="38.38" y1="115.72" x2="24.09" y2="129.71"/>
        <line x1="130.23" y1="129.71" x2="115.95" y2="115.72"/>
        <line x1="37.38" y1="38.73" x2="23.09" y2="24.73"/>
    </symbol>
    <symbol id="bulb-med" viewBox="0 0 154 165.55">
        <use href="#bulb"/>
        <line x1="77" y1="22" x2="77" y2="2"/>      
        <line x1="131.23" y1="24.73" x2="116.95" y2="38.73"/>
        <line x1="38.38" y1="115.72" x2="24.09" y2="129.71"/>
        <line x1="130.23" y1="129.71" x2="115.95" y2="115.72"/>
        <line x1="37.38" y1="38.73" x2="23.09" y2="24.73"/>
    </symbol>
    <symbol id="bulb-low" viewBox="0 0 154 165.55">
        <use href="#bulb"/>
        <line x1="131.23" y1="24.73" x2="116.95" y2="38.73"/>
        <line x1="38.38" y1="115.72" x2="24.09" y2="129.71"/>
        <line x1="130.23" y1="129.71" x2="115.95" y2="115.72"/>
        <line x1="37.38" y1="38.73" x2="23.09" y2="24.73"/>
    </symbol>

    <symbol id="power" viewBox="0 0 96 106.18">
      <path d="M36.74,14.6C17.33,19.6,3,37.22,3,58.18c0,24.85,20.15,45,45,45c24.85,0,45-20.15,45-45
        C93,37.22,78.66,19.6,59.26,14.6"/>
      <line x1="48" y1="55.55" x2="48" y2="3"/>
    </symbol>

    <symbol id="play-pause" viewBox="0 0 120.91 91">
        <path d="M3,5.35c4.86,2.97,9.66,6.05,14.47,9.1c6.44,4.09,12.89,8.17,19.32,12.28c7.15,4.57,14.35,9.08,21.48,13.69
          c2.49,1.61,5,3.19,7.5,4.77c0.58,0.37,0.14,0.47-0.11,0.63c-7.38,4.69-14.75,9.37-22.13,14.06c-6.49,4.12-12.98,8.24-19.47,12.37
          C18.31,75.92,12.56,79.6,6.8,83.27c-1.26,0.8-2.53,1.57-3.8,2.36C3,58.87,3,32.11,3,5.35z"/>
        <path d="M89.18,45.55c0,11.2,0,22.39,0,33.59c0,0.76-0.02,0.79-0.76,0.79c-3.35,0-6.7,0-10.05,0c-0.71,0-0.74-0.03-0.74-0.75
          c0-22.47,0-44.94-0.01-67.41c0-0.53,0.14-0.74,0.71-0.73c3.35,0.02,6.7,0.01,10.05,0.01c0.79,0,0.8,0.01,0.8,0.8
          C89.18,23.08,89.18,34.31,89.18,45.55z"/>
        <path d="M106.33,45.43c0-11.16,0-22.32,0-33.48c0-0.9,0-0.9,0.9-0.9c3.31,0,6.62,0.01,9.93-0.01c0.58,0,0.74,0.17,0.74,0.75
          c-0.01,22.47-0.01,44.94,0,67.41c0,0.58-0.16,0.75-0.74,0.75c-3.35-0.03-6.7-0.01-10.05-0.01c-0.78,0-0.79,0-0.79-0.79
          C106.33,67.9,106.33,56.66,106.33,45.43z"/>
    </symbol>


    <symbol id="back" viewBox="0 0 69.07 91">
        <path d="M66.07,85.65c-4.86-2.97-9.66-6.05-14.47-9.1c-6.44-4.09-12.89-8.17-19.32-12.28
          c-7.15-4.57-14.35-9.08-21.48-13.69c-2.49-1.61-5-3.19-7.5-4.77c-0.58-0.37-0.14-0.47,0.11-0.63c7.38-4.69,14.75-9.37,22.13-14.06
          c6.49-4.12,12.98-8.24,19.47-12.37c5.76-3.67,11.51-7.35,17.27-11.01c1.26-0.8,2.53-1.57,3.8-2.36
          C66.07,32.14,66.07,58.9,66.07,85.65z"/>
    </symbol>


    <symbol id="restart" viewBox="0 0 96 100.49">
        <path d="M34.65,9.5C16.32,15.19,3,32.28,3,52.49c0,24.85,20.15,45,45,45c24.85,0,45-20.15,45-45
          c0-20.96-14.34-38.58-33.74-43.58"/>
          <polygon points="25.74,4.07 24.93,5.9 33.96,9.87 29.35,18.59 31.12,19.52 36.74,8.91"/>
    </reload>


    <symbol id="circle" viewBox="0 0 90 90">
      <circle cx="45" cy="45" r="42"/>
    </symbol>


  </defs>
</svg>