<?xml version="1.0" encoding="utf-8"?>
<svg version="1.1" id="Layer_1" xmlns="http://www.w3.org/2000/svg" xmlns:xlink="http://www.w3.org/1999/xlink" x="0px" y="0px"
	 viewBox="0 0 285.45 113.01" style="enable-background:new 0 0 285.45 113.01;" xml:space="preserve">
<style type="text/css">
	.st0{fill:#FE0100;}
</style>
	<path class="st0" d="M128.47,112.2h30.87L194.97,0.8h-27.98l-23.08,72.5L120.82,0.8H92.87L128.47,112.2z"/>
	<path class="st0" d="M285.45,87.79V68.99h-26.39v18.79h-32.7V25.26h32.7v18.76h26.39V20.41h-0.02c0-2.45-0.17-4.82-0.52-7.15
		c-0.94-6.66-6.36-11.84-12.99-12.82C269.76,0.14,267.6,0,265.37,0h-45.35c-2.23,0-4.4,0.14-6.53,0.44
		c-6.64,0.97-12.07,6.15-13.02,12.82c-0.33,2.34-0.51,4.7-0.51,7.15v72.22c0,2.43,0.18,4.8,0.51,7.14
		c0.95,6.69,6.38,11.81,13.02,12.81c2.13,0.3,4.31,0.44,6.53,0.44h45.35c2.23,0,4.38-0.14,6.54-0.44c6.63-1,12.05-6.12,12.99-12.81
		c0.35-2.33,0.52-4.7,0.52-7.14l0.02-0.01V87.79z"/>
	<path class="st0" d="M0,87.79V66.57h26.38v21.21H59.1V0.81h26.38v91.82c0,2.43-0.2,4.8-0.52,7.14
		c-0.96,6.69-6.39,11.81-13.02,12.81c-2.11,0.3-4.31,0.44-6.54,0.44H20.06c-2.23,0-4.4-0.14-6.53-0.44
		c-6.61-1-12.05-6.12-13.01-12.81c-0.35-2.33-0.5-4.7-0.5-7.14L0,92.61V87.79z"/>
</svg>
