<?xml version="1.0" encoding="utf-8"?>
<!-- Generator: Adobe Illustrator 27.6.0, SVG Export Plug-In . SVG Version: 6.00 Build 0)  -->
<svg version="1.1" id="Layer_1" xmlns="http://www.w3.org/2000/svg" xmlns:xlink="http://www.w3.org/1999/xlink" x="0px" y="0px"
	 viewBox="0 0 205.71 30.39" style="enable-background:new 0 0 205.71 30.39;" xml:space="preserve">
<style type="text/css">
	.st0{fill:#FFFFFF;}
	.st1{fill-rule:evenodd;clip-rule:evenodd;fill:#FFFFFF;}
</style>
<g>
	<path class="st0" d="M15.99,7.65c-0.26-0.03-0.51-0.04-0.77-0.04s-0.52,0.01-0.77,0.04l-0.79-7.57C14.17,0.03,14.69,0,15.22,0
		c0.52,0,1.03,0.03,1.54,0.08L15.99,7.65L15.99,7.65z"/>
	<path class="st0" d="M12.87,8.01c-0.24,0.07-0.49,0.16-0.73,0.27c-0.24,0.1-0.47,0.21-0.69,0.34L7.77,1.95
		c0.45-0.25,0.92-0.48,1.4-0.68c0.48-0.2,0.96-0.38,1.45-0.53L12.87,8.01L12.87,8.01z"/>
	<path class="st0" d="M10.32,9.39c-0.19,0.17-0.38,0.34-0.56,0.53C9.58,10.1,9.41,10.3,9.25,10.5L3.26,5.8
		c0.32-0.4,0.66-0.8,1.02-1.17c0.36-0.37,0.74-0.73,1.12-1.05L10.32,9.39L10.32,9.39z"/>
	<path class="st0" d="M8.48,11.69c-0.12,0.23-0.23,0.46-0.33,0.7c-0.1,0.24-0.18,0.49-0.25,0.73l-7.31-2.11
		c0.14-0.49,0.31-0.99,0.51-1.47c0.19-0.48,0.41-0.95,0.65-1.4L8.48,11.69L8.48,11.69z"/>
	<path class="st0" d="M7.65,14.51c-0.03,0.26-0.04,0.51-0.04,0.77c0,0.26,0.01,0.52,0.04,0.77l-7.57,0.78
		C0.03,16.32,0,15.81,0,15.28c0-0.52,0.02-1.03,0.08-1.54L7.65,14.51L7.65,14.51z"/>
	<path class="st0" d="M8.01,17.63c0.08,0.25,0.16,0.49,0.27,0.73c0.1,0.24,0.21,0.47,0.34,0.69l-6.66,3.68
		c-0.25-0.45-0.48-0.92-0.68-1.4c-0.2-0.48-0.38-0.96-0.53-1.45L8.01,17.63L8.01,17.63z"/>
	<path class="st0" d="M9.39,20.18c0.17,0.19,0.34,0.39,0.53,0.56c0.19,0.18,0.38,0.35,0.58,0.51L5.8,27.24
		c-0.4-0.32-0.8-0.66-1.17-1.03c-0.37-0.36-0.73-0.74-1.06-1.12L9.39,20.18L9.39,20.18z"/>
	<path class="st0" d="M11.69,22.02c0.23,0.12,0.46,0.23,0.7,0.33c0.24,0.1,0.48,0.18,0.73,0.25l-2.11,7.31
		c-0.49-0.14-0.99-0.31-1.47-0.51c-0.48-0.19-0.95-0.41-1.4-0.65L11.69,22.02L11.69,22.02z"/>
	<path class="st0" d="M14.42,22.75c0.26,0.02,0.51,0.04,0.77,0.04c0.26,0,0.52-0.01,0.77-0.04l0.79,7.57
		c-0.51,0.05-1.03,0.08-1.56,0.08c-0.52,0-1.03-0.03-1.54-0.08L14.42,22.75L14.42,22.75z"/>
	<path class="st0" d="M17.54,22.38c0.24-0.07,0.49-0.16,0.73-0.27c0.24-0.1,0.47-0.21,0.69-0.34l3.68,6.66
		c-0.45,0.24-0.92,0.47-1.4,0.68c-0.48,0.2-0.96,0.38-1.45,0.53L17.54,22.38L17.54,22.38z"/>
	<path class="st0" d="M20.09,21.01c0.19-0.16,0.38-0.34,0.56-0.53c0.18-0.19,0.35-0.38,0.51-0.58l5.99,4.69
		c-0.32,0.4-0.66,0.8-1.02,1.17c-0.36,0.37-0.74,0.72-1.13,1.05L20.09,21.01L20.09,21.01z"/>
	<path class="st0" d="M21.94,18.7c0.12-0.23,0.23-0.46,0.33-0.7c0.1-0.24,0.18-0.48,0.25-0.73l7.31,2.11
		c-0.14,0.49-0.31,0.98-0.51,1.47c-0.19,0.48-0.41,0.95-0.65,1.4L21.94,18.7L21.94,18.7z"/>
	<path class="st0" d="M22.79,15.99c0.03-0.25,0.04-0.51,0.04-0.77s-0.01-0.52-0.04-0.77l7.57-0.79c0.05,0.51,0.08,1.03,0.08,1.56
		c0,0.52-0.03,1.03-0.08,1.54L22.79,15.99L22.79,15.99z"/>
	<path class="st0" d="M22.43,12.87c-0.08-0.25-0.17-0.49-0.27-0.73c-0.1-0.24-0.21-0.47-0.33-0.69l6.66-3.68
		c0.25,0.45,0.48,0.92,0.68,1.4c0.2,0.48,0.38,0.96,0.53,1.45L22.43,12.87L22.43,12.87z"/>
	<path class="st0" d="M21.05,10.33c-0.17-0.19-0.34-0.38-0.53-0.57c-0.19-0.18-0.38-0.35-0.58-0.51l4.69-5.99
		c0.4,0.32,0.8,0.66,1.17,1.02c0.38,0.36,0.73,0.73,1.06,1.12L21.05,10.33L21.05,10.33z"/>
	<path class="st0" d="M18.74,8.48c-0.23-0.12-0.46-0.23-0.7-0.33c-0.24-0.1-0.48-0.18-0.73-0.25l2.1-7.31
		c0.49,0.14,0.99,0.31,1.47,0.51c0.48,0.19,0.95,0.41,1.4,0.65L18.74,8.48L18.74,8.48z"/>
	<polygon class="st0" points="96.25,28.21 103.21,28.21 103.21,7.8 113.15,7.8 113.15,2.36 86.29,2.36 86.29,7.8 96.25,7.8 	"/>
	<path class="st1" d="M142.85,15.02c0,7.69,5.97,13.85,16.12,13.85c10.03-0.01,16.12-6.16,16.12-13.85
		c0-7.91-5.98-13.49-16.12-13.49C148.81,1.53,142.85,7.1,142.85,15.02L142.85,15.02z M150.91,15.56c0-4.67,1.73-8.78,7.98-8.84
		c6.32-0.07,8.87,4.06,8.51,8.71c-0.33,4.32-2.26,8.05-8.51,8.05C152.84,23.47,150.91,19.75,150.91,15.56L150.91,15.56z"/>
	<polygon class="st0" points="177.17,28.21 184.16,28.21 184.16,11.7 184.25,11.7 197.65,28.21 205.71,28.21 205.71,2.32 
		198.64,2.36 198.64,19.17 198.55,19.17 185.13,2.36 177.17,2.36 	"/>
	<polygon class="st0" points="34.01,28.23 55.92,28.23 55.92,22.73 41,22.73 41,2.32 34.01,2.32 	"/>
	<path class="st0" d="M84.71,2.32h-6.96v15.83c0,3.96-2.24,5.53-7.38,5.53c-5.03,0-7.35-1.55-7.34-5.53V2.32h-6.94v15.83
		c0,7.24,5.47,10.72,14.29,10.72c8.77,0,14.34-3.51,14.34-10.72V2.32L84.71,2.32z"/>
	<path class="st1" d="M114.66,28.21h6.46V18.14h10.45c2.72-0.04,3.21,1.29,3.65,4.04c0.55,3.4,0.99,6.15,2.94,6.03h5.48
		c-1.58,0.32-2.05-4.2-2.38-6.33c-0.89-5.7-1.86-5.98-4.52-6.09l-0.03-0.09c3.36-1.06,5.49-3.65,5.41-6.78
		c-0.1-4.17-3.01-7.01-9.78-6.59h-17.68L114.66,28.21L114.66,28.21z M121.03,7.63h8.66c3.22,0,5.45,0.46,5.45,3.03
		c0,2.69-2.24,3.04-5.45,3.04h-8.66V7.63L121.03,7.63z"/>
</g>
</svg>
