<?xml version="1.0" encoding="utf-8"?>
<svg version="1.1" id="Layer_1" xmlns="http://www.w3.org/2000/svg" xmlns:xlink="http://www.w3.org/1999/xlink" x="0px" y="0px"
	 viewBox="0 0 458.08 211.13" style="enable-background:new 0 0 458.08 211.13;" xml:space="preserve">
<style type="text/css">
	.st0{fill:#EBAF00;}
	.st1{fill:#ffffff;}
</style>
	<path class="st1" d="M75.21,37.76c-18.26,0-30.02,5.26-39.93,17.64V41.78H0v167.76c0,0,0.62,0.31,2.48,0.62
		c2.48,0.62,15.48,3.4,25.07-4.64c8.36-7.12,10.21-15.48,10.21-24.76v-24.14c10.21,10.83,21.67,15.48,37.76,15.48
		c34.67,0,61.28-28.17,61.28-65.62C136.81,65.93,111.12,37.76,75.21,37.76L75.21,37.76z M68.4,140.21
		c-19.5,0-34.98-16.09-34.98-35.59c0-19.19,18.26-34.67,34.98-34.67c19.81,0,34.98,15.17,34.98,34.98S87.9,140.21,68.4,140.21z"/>
	<path class="st1" d="M186.95,102.45c0,14.55,1.55,32.19,15.79,51.38c0.31,0.31,0.93,1.24,0.93,1.24c-5.88,9.9-13,16.71-22.59,16.71
		c-7.43,0-14.86-4.02-21.05-10.83c-6.5-7.43-9.6-17.02-9.6-27.24V0h36.21L186.95,102.45z"/>
	<polygon class="st0" points="364.92,104.93 322.21,41.78 366.16,41.78 408.56,104.93 366.16,167.76 322.21,167.76 	
		"/>
	<polygon class="st1" points="420.01,97.81 458.08,41.78 414.13,41.78 398.35,65 	"/>
	<path class="st1" d="M398.35,144.85l7.43,10.21c7.12,11.14,16.4,16.71,27.24,16.71c11.45-0.31,19.5-10.21,22.59-13.93
		c0,0-5.57-4.95-12.69-13.31c-9.6-11.14-22.29-31.57-22.59-32.5L398.35,144.85z"/>
	<path class="st1" d="M289.71,131.54c-7.43,6.81-12.38,10.52-22.59,10.52c-18.26,0-28.78-13-30.33-27.24h96.88
		c0.62-1.86,0.93-4.33,0.93-8.36c0-39.31-28.78-68.71-66.55-68.71c-35.9,0-65.31,30.02-65.31,67.47c0,37.14,29.4,66.55,66.24,66.55
		c25.69,0,47.97-14.55,60.05-40.24H289.71z M268.35,67.47c16.09,0,28.17,10.52,30.95,24.45h-61.28
		C241.11,77.38,252.56,67.47,268.35,67.47L268.35,67.47z"/>
</svg>
